<?xml version="1.0" standalone="no"?>
<!DOCTYPE svg PUBLIC "-//W3C//DTD SVG 1.1//EN" "http://www.w3.org/Graphics/SVG/1.1/DTD/svg11.dtd" >
<!--
2013-9-30: Created.
-->
<svg>
<metadata>
Created by iconfont
</metadata>
<defs>

<font id="iconfont" horiz-adv-x="1024" >
  <font-face
    font-family="iconfont"
    font-weight="500"
    font-stretch="normal"
    units-per-em="1024"
    ascent="896"
    descent="-128"
  />
    <missing-glyph />
    
    <glyph glyph-name="iconmonstrtime11icon" unicode="&#58901;" d="M771.5-112l-519 0 0 106.686c0 49.444 16.74 98.148 47.136 137.142l101.536 130.26c18.224 23.378 18.094 55.934-0.318 79.168l-100.112 126.332c-31.11 39.256-48.242 88.458-48.242 138.546L252.5 712l519 0 0-105.866c0-50.09-17.132-99.292-48.242-138.546l-100.112-126.332c-18.412-23.234-18.542-55.79-0.318-79.168l101.538-130.26c30.394-38.996 47.134-87.7 47.134-137.142L771.5-112zM332.5-11.998l359 0c0 34.748-7.408 65.364-30.232 94.642l-101.536 130.26c-40.984 52.578-40.692 125.792 0.714 178.04l100.112 126.332c23.198 29.27 30.942 60.424 30.942 94.722l-359 0c0-34.532 7.866-65.604 30.942-94.722l100.114-126.332c41.402-52.25 41.696-125.462 0.712-178.04l-101.538-130.26C339.79 53.212 332.5 22.524 332.5-11.998z"  horiz-adv-x="1024" />

    
    <glyph glyph-name="guige" unicode="&#58895;" d="M149.285002 426.685999H191.623018v42.685999H149.285002v-42.685999zM191.623018 725.256004H149.285002v-42.685999H191.623018v42.685999z m0-768H149.285002v-42.570005H64.028999v-42.685999h213.314001V-85.314001H191.623018v42.685999zM149.285002 554.743996H191.623018v42.685999H149.285002v-42.685999z m0-512H191.623018v42.685999H149.285002v-42.685999z m0 256H191.623018v42.685999H149.285002v-42.685999zM405.285002 896v-1024h554.685999V896z m341.371998-938.628002H490.657V810.628002h256v-853.256004z m127.594019 0h-84.908019v85.256004h85.256003v-85.256004z m0 127.594019h-84.908019v85.719982h85.256003v-85.256004z m0 127.594019h-84.908019V298.628002h85.256003v-85.256004z m0 127.594019h-84.908019v86.531944h85.256003v-85.256004z m0 127.594019h-84.908019v86.879928h85.256003v-85.256004z m0 127.594019h-84.908019V682.570005h85.256003v-85.256004z m0 127.594019h-84.908019V810.628002h85.256003v-85.256004zM64.028999 853.314001h85.256003v-42.685999H191.623018V853.314001h85.256003V896H64.028999v-42.685999z m85.256003-682.628002H191.623018v42.685999H149.285002v-42.685999z"  horiz-adv-x="1024" />

    
    <glyph glyph-name="youxiaoqi" unicode="&#58930;" d="M877.714286 786.285714h73.142857a109.714286 109.714286 0 0 0 109.714286-109.714285v-694.857143a109.714286 109.714286 0 0 0-109.714286-109.714286H109.714286a109.714286 109.714286 0 0 0-109.714286 109.714286V676.571429a109.714286 109.714286 0 0 0 109.714286 109.714285h73.142857v-73.142857H109.714286a36.571429 36.571429 0 0 1-36.571429-36.571428v-694.857143a36.571429 36.571429 0 0 1 36.571429-36.571429h841.142857a36.571429 36.571429 0 0 1 36.571428 36.571429V676.571429a36.571429 36.571429 0 0 1-36.571428 36.571428h-73.142857V786.285714z m-219.428572 0v-73.142857h-256V786.285714h256zM292.571429 896a36.571429 36.571429 0 0 0 36.571428-36.571429v-219.428571a36.571429 36.571429 0 1 0-73.142857 0V859.428571a36.571429 36.571429 0 0 0 36.571429 36.571429z m475.428571 0a36.571429 36.571429 0 0 0 36.571429-36.571429v-219.428571a36.571429 36.571429 0 0 0-73.142858 0V859.428571a36.571429 36.571429 0 0 0 36.571429 36.571429zM256 384h36.571429a36.571429 36.571429 0 0 0 36.571428-36.571429v-36.571428a36.571429 36.571429 0 0 0-36.571428-36.571429H256a36.571429 36.571429 0 0 0-36.571429 36.571429v36.571428a36.571429 36.571429 0 0 0 36.571429 36.571429z m256 0h36.571429a36.571429 36.571429 0 0 0 36.571428-36.571429v-36.571428a36.571429 36.571429 0 0 0-36.571428-36.571429h-36.571429a36.571429 36.571429 0 0 0-36.571429 36.571429v36.571428a36.571429 36.571429 0 0 0 36.571429 36.571429z m256 0h36.571429a36.571429 36.571429 0 0 0 36.571428-36.571429v-36.571428a36.571429 36.571429 0 0 0-36.571428-36.571429h-36.571429a36.571429 36.571429 0 0 0-36.571429 36.571429v36.571428a36.571429 36.571429 0 0 0 36.571429 36.571429zM256 201.142857h36.571429a36.571429 36.571429 0 0 0 36.571428-36.571428v-36.571429a36.571429 36.571429 0 0 0-36.571428-36.571429H256a36.571429 36.571429 0 0 0-36.571429 36.571429v36.571429a36.571429 36.571429 0 0 0 36.571429 36.571428z m256 0h36.571429a36.571429 36.571429 0 0 0 36.571428-36.571428v-36.571429a36.571429 36.571429 0 0 0-36.571428-36.571429h-36.571429a36.571429 36.571429 0 0 0-36.571429 36.571429v36.571429a36.571429 36.571429 0 0 0 36.571429 36.571428z m256 0h36.571429a36.571429 36.571429 0 0 0 36.571428-36.571428v-36.571429a36.571429 36.571429 0 0 0-36.571428-36.571429h-36.571429a36.571429 36.571429 0 0 0-36.571429 36.571429v36.571429a36.571429 36.571429 0 0 0 36.571429 36.571428z"  horiz-adv-x="1060" />

    
    <glyph glyph-name="yongfayongliang" unicode="&#58948;" d="M840.8 676.8c-26.4 0-52-7.2-72.8-20V749.6C768 830.4 702.4 896 621.6 896H183.2C102.4 896 36.8 830.4 36.8 749.6v-584.8C36.8 3.2 168-128 328.8-128h146.4C636.8-128 768 3.2 768 164.8V184c21.6-12.8 46.4-20 72.8-20 80.8 0 146.4 65.6 146.4 146.4V530.4c0 80.8-64.8 146.4-146.4 146.4zM699.2 156c0-121.6-98.4-219.2-219.2-219.2H333.6c-121.6 0-219.2 98.4-219.2 219.2v7.2H384c12.8 0 22.4 7.2 22.4 16.8v9.6c0 9.6-10.4 16.8-22.4 16.8H113.6v160H384c12.8 0 22.4 7.2 22.4 16.8v9.6c0 9.6-10.4 16.8-22.4 16.8H113.6V568.8H384c12.8 0 22.4 7.2 22.4 16.8v9.6c0 9.6-10.4 16.8-22.4 16.8H113.6V741.6c0 40 32.8 72.8 72.8 72.8h439.2c40.8 0 72.8-32.8 72.8-72.8v-585.6z m215.2 155.2c0-40.8-32.8-72.8-72.8-72.8-40.8 0-72.8 32.8-72.8 72.8V530.4c0 40.8 32.8 72.8 72.8 72.8 40.8 0 72.8-32.8 72.8-72.8v-219.2z m0 0"  horiz-adv-x="1024" />

    
    <glyph glyph-name="sangedian2" unicode="&#58893;" d="M931.28704 382.65344000000005z m92.71296 0a92.70784 92.70784 0 1 1-185.42592 0 92.71296 92.71296 0 0 1 185.42592 0M512 384z m92.71296 0a92.71808 92.71808 0 1 1-185.43104 0 92.71808 92.71808 0 0 1 185.43104 0M92.71296 385.34656z m92.71296 0c0 51.20512-41.50784001 92.71296-92.71296 92.71296C41.50784 478.05952 0 436.55168 0 385.34656S41.50784 292.62847999999997 92.71296 292.62847999999997c51.20512 0 92.71296 41.51296 92.71296 92.71808"  horiz-adv-x="1024" />

    
    <glyph glyph-name="chahao" unicode="&#58903;" d="M511.488 832c-247.808 0-448.512-200.704-448.512-448 0-247.808 200.704-448.512 448.512-448.512 247.808 0 448 200.704 448 448.512 0 247.296-200.704 448-448 448zM707.584 247.808c16.896-16.896 16.896-43.52 0-60.416s-43.52-16.896-60.416 0l-136.192 135.68-136.192-136.192c-16.896-16.896-44.032-16.896-60.416 0-16.896 16.896-16.896 43.52 0 60.416l136.192 136.192-135.68 135.68c-16.896 16.896-16.896 43.52 0 60.416s43.52 16.896 60.416 0l136.192-136.192 136.192 136.192c16.896 16.896 43.52 16.896 60.416 0s16.896-43.52 0-60.416l-136.192-135.168 135.68-136.192z"  horiz-adv-x="1024" />

    
    <glyph glyph-name="chahao1" unicode="&#58906;" d="M873.6 745.6c-198.4 198.4-524.8 198.4-723.2 0s-198.4-524.8 0-723.2c198.4-198.4 524.8-198.4 723.2 0s198.4 524.8 0 723.2z m-480-611.2L160 387.2l44.8 44.8 192-208 393.6 374.4 44.8-44.8L393.6 134.4z"  horiz-adv-x="1024" />

    
    <glyph glyph-name="shoucang" unicode="&#59005;" d="M669.37 654.374c80.204 0 148.921-59.161 159.833-137.619 7.603-54.509-7.565-100.429-46.297-140.41-81.504-84.108-227.693-230.591-256.173-259.103-2.925-2.932-6.26-3.546-8.531-3.546-2.279 0-5.607 0.614-8.519 3.546-64.096 64.345-180.454 181.344-247.731 249.152-30.22 30.444-48 63.142-54.349 99.916-11.366 65.818 19.879 132.525 77.754 165.99 24.864 14.388 52.832 21.991 80.89 21.991 40.902 0 80.313-15.897 110.956-44.774 13.517-12.743 26.944-16.615 38.279-16.615 14.572 0 25.683 6.407 29.03 8.576 7.168 4.672 14.08 9.485 20.915 14.24 12.32 8.55 23.917 16.634 34.931 22.176 21.677 10.932 44.91 16.48 69.012 16.48m0 53.14c-31.053 0-62.637-6.99-92.621-22.1-21.03-10.604-39.898-25.612-60.915-39.334 0 0-1.37 1.069-2.618 2.246-41.376 38.99-93.875 59.11-146.976 59.11-36.576 0-73.44-9.548-107.149-29.042-77.446-44.794-118.662-133.088-103.443-221.19 8.742-50.625 33.389-92.468 69.011-128.398 67.303-67.808 183.687-184.844 247.789-249.222 12.66-12.691 29.197-19.027 45.747-19.027 16.538 0 33.05 6.31 45.69 18.97 65.824 65.887 186.899 187.596 256.742 259.654 49.274 50.854 70.74 113.645 60.82 184.94-15.188 109.07-110.785 183.393-212.077 183.393z"  horiz-adv-x="1024" />

    
    <glyph glyph-name="jiankangdangan" unicode="&#59214;" d="M205.078749 549.914774c-16.72287 0-23.51967-6.830569-23.51967-23.51967 0-16.692171 6.797823-23.51967 23.51967-23.51967h258.720459c16.72287 0 23.51967 6.830569 23.51967 23.51967 0 16.690124-6.797823 23.51967-23.51967 23.51967H205.078749zM346.198813 8.956232H205.078749c-50.116421 0-94.080725 62.071707-94.080726 117.598348V643.995499c0 55.516408 43.963281 117.602442 94.080726 117.602442h564.481281c50.109258 0 94.080725-62.086034 94.080726-117.602442v-47.040363c0-16.690124 6.79987-23.517623 23.519669-23.517623 16.72287 0 25.107841 6.821359 25.107841 23.51046v50.453089c0 88.896656-67.928089 161.235195-151.492296 161.235195H215.436654c-83.500762 0-151.488203-72.338538-151.488203-161.235195v-524.238742c0-88.969311 67.987441-161.246451 151.488203-161.246451h121.18913c16.720823 0 33.092699 6.839779 33.092699 23.517623 0.001023 16.703427-6.7968 23.52274-23.51967 23.52274z m445.096241 289.686728c45.709041 32.989345 72.345702 96.725972 72.345702 157.194158 0 85.058235-78.486562 164.637688-188.160428 164.637688-74.17742 0-164.640758-64.602344-164.640757-164.637688 0-60.470233 22.233374-124.204813 67.949578-157.196205-96.477308-48.241724-166.428473-154.676825-166.428474-245.99667 0-16.690124 11.195993-43.689035 27.91784-43.689035 16.734126 0 24.063045 16.864086 23.51967 47.037293-1.503237 83.630722 81.45722 216.773092 211.680097 211.683167 130.948401 12.969383 235.20079-128.041188 235.20079-211.683167 0-16.690124 6.78759-47.037293 23.519669-47.037293 16.72287 0 23.52274 26.998911 23.52274 43.689035 0.002047 91.318822-57.747215 183.019337-166.426427 245.998717z m-115.814726 16.071024c-66.884316 0.927115-117.600395 74.356498-117.600395 141.123134 0 53.612035 50.708915 117.600395 117.600395 117.600395 67.786873 0.541329 141.120065-50.885947 141.120065-117.600395 0-66.766636-44.046169-141.505851-141.120065-141.123134z m-282.241152 70.563102H215.436654c-16.72287 0-33.878598-6.832615-33.878598-23.522739s6.797823-23.517623 23.519669-23.517623h188.160428c16.72287-0.005117 23.51967 6.827499 23.519669 23.517623 0.001023 16.694217-6.795776 23.52274-23.518646 23.522739z"  horiz-adv-x="1024" />

    
    <glyph glyph-name="lianxikefu" unicode="&#58911;" d="M931.2 410h-42.7c0 213-170.2 379.4-379.4 379.4S129.8 623 129.8 410H87.1c0 234 189.3 422 422 422s422.1-188 422.1-422zM196.1 171.9h-12.5c-53.2 0-96.5 43.3-96.5 96.5V416.1c0 53.2 43.3 96.5 96.5 96.5h12.5c53.2 0 96.5-43.3 96.5-96.5v-147.7c0-53.3-43.3-96.5-96.5-96.5z m-12.5 298c-29.7 0-53.8-24.1-53.8-53.8v-147.7c0-29.7 24.1-53.8 53.8-53.8h12.5c29.7 0 53.8 24.1 53.8 53.8V416.1c0 29.7-24.1 53.8-53.8 53.8h-12.5zM834.7 171.9h-12.5c-53.2 0-96.5 43.3-96.5 96.5V416.1c0 53.2 43.3 96.5 96.5 96.5h12.5c53.2 0 96.5-43.3 96.5-96.5v-147.7c0-53.3-43.3-96.5-96.5-96.5z m-12.4 298c-29.7 0-53.8-24.1-53.8-53.8v-147.7c0-29.7 24.1-53.8 53.8-53.8h12.5c29.7 0 53.8 24.1 53.8 53.8V416.1c0 29.7-24.1 53.8-53.8 53.8h-12.5zM571.7-63.2h-125c-36.3 0-65.8 29.5-65.8 65.8s29.5 65.8 65.8 65.8h125c36.3 0 65.8-29.5 65.8-65.8-0.1-36.3-29.6-65.8-65.8-65.8z m-125 88.9c-12.8 0-23.1-10.4-23.1-23.1s10.4-23.1 23.1-23.1h125c12.8 0 23.1 10.4 23.1 23.1s-10.4 23.1-23.1 23.1h-125zM618-18.8v42.7c128 0 197.2 175.5 197.9 177.3l40-16c-3.3-8.3-88.9-204-237.9-204z"  horiz-adv-x="1024" />

    
    <glyph glyph-name="daifahuo" unicode="&#59013;" d="M840.704 684.544v-143.36H182.784v143.36h657.92m19.968 28.672H162.816c-4.608 0-8.704-4.096-8.704-8.704v-192h715.264V704.512c0 4.608-4.096 8.704-8.704 8.704zM769.536 513.024v-443.904H254.464V513.024h515.072m28.16 28.672H225.792V40.96h572.416V541.696h-0.512zM414.208 319.488H609.28v-28.672H414.208z"  horiz-adv-x="1024" />

    
    <glyph glyph-name="daifukuan1" unicode="&#58946;" d="M877.568 575.488c3.072 5.12 5.12 11.264 5.12 18.432 0 9.216-3.072 17.408-9.216 23.552L634.88 855.04c-6.144 6.144-14.336 10.24-23.552 10.24-9.216 0-17.408-4.096-23.552-10.24l-62.464-62.464-118.784 68.608c-15.36 9.216-35.84 3.072-45.056-12.288L202.752 575.488h-52.224C78.848 575.488 20.48 517.12 20.48 446.464v-434.176C20.48-59.392 78.848-117.76 150.528-117.76h723.968c34.816 0 67.584 13.312 92.16 37.888 24.576 24.576 37.888 57.344 37.888 91.136V446.464c-1.024 69.632-57.344 126.976-126.976 129.024z m-475.136 0l208.896 208.896 191.488-191.488-17.408-17.408H402.432z m-122.88 0l122.88 210.944 74.752-43.008-168.96-167.936h-28.672z m517.12-66.56H874.496c34.816 0 63.488-28.672 63.488-63.488v-434.176c0-34.816-28.672-63.488-63.488-63.488H150.528c-34.816 0-63.488 28.672-63.488 63.488V446.464c0 34.816 28.672 63.488 63.488 63.488h646.144zM801.792 122.88c58.368 0 105.472 47.104 105.472 105.472 0 58.368-47.104 105.472-105.472 105.472-58.368 0-105.472-47.104-105.472-105.472 0-57.344 47.104-105.472 105.472-105.472z m-39.936 106.496c0 21.504 17.408 38.912 38.912 38.912S839.68 250.88 839.68 229.376c0-21.504-17.408-38.912-38.912-38.912s-38.912 16.384-38.912 38.912z"  horiz-adv-x="1024" />

    
    <glyph glyph-name="daishouhuo1" unicode="&#58889;" d="M510.777335-128a508.337681 508.337681 0 0 0-470.435055 318.125883C-65.622051 451.426938 58.973372 750.979952 318.003762 857.875838s556.02163-18.747536 661.985962-280.04859a516.779894 516.779894 0 0 0 34.933296-246.221516 19.67909 19.67909 0 0 0-21.83331-17.874203 20.028423 20.028423 0 0 0-17.466648 22.007977 475.96616 475.96616 0 0 1-32.429744 227.066425C845.496534 803.379896 571.677714 919.241995 333.02508 820.7301S-20.732766 446.128722 77.138686 205.380089s371.39916-356.668953 610.051794-258.098836a19.853757 19.853757 0 0 0 25.967083-10.945766 20.144867 20.144867 0 0 0-10.887544-26.199972 501.176355 501.176355 0 0 0-191.492684-38.135515zM870.066285 26.521613h-0.756888a19.970201 19.970201 0 0 0-19.096868 20.785311l5.007105 132.688303a19.038646 19.038646 0 0 0 20.610645 19.271535 19.970201 19.970201 0 0 0 19.096869-20.785311l-5.007106-132.571859a19.970201 19.970201 0 0 0-19.853757-19.387979z m131.52386-5.065328h-0.756888l-131.52386 5.065328a19.970201 19.970201 0 0 0-19.096868 20.785311 19.387979 19.387979 0 0 0 20.610644 19.271535l131.52386-5.065328a20.086645 20.086645 0 0 0-0.698666-40.115068z m-320.687658 125.759866H379.020586A79.822582 79.822582 0 0 0 299.489115 227.271621V523.331306a79.822582 79.822582 0 0 0 79.531471 80.346581h301.940123A79.822582 79.822582 0 0 0 760.317513 523.331306v-296.292573a79.822582 79.822582 0 0 0-79.415026-79.822582zM379.020586 563.504597a39.823958 39.823958 0 0 1-39.649291-40.173291v-296.292573a39.823958 39.823958 0 0 1 39.591069-39.940402h301.940123a39.823958 39.823958 0 0 1 39.649291 39.940402V523.331306a39.823958 39.823958 0 0 1-39.649291 39.940402H379.020586z m122.848758-271.955711a19.737312 19.737312 0 0 0-14.089763 5.822216L427.577868 358.155038a20.20309 20.20309 0 0 0 0 28.354192 19.737312 19.737312 0 0 0 28.121303 0l60.259936-60.667491a20.20309 20.20309 0 0 0 0-28.354192 19.737312 19.737312 0 0 0-14.089763-5.880439z m0 0a19.737312 19.737312 0 0 0-14.089763 5.822216 20.20309 20.20309 0 0 0 0 28.354192l128.088753 129.136752a19.737312 19.737312 0 0 0 28.121303 0 20.20309 20.20309 0 0 0 0-28.354192l-128.088752-129.136752a19.737312 19.737312 0 0 0-14.031541-5.763994z"  horiz-adv-x="1024" />

    
    <glyph glyph-name="location" unicode="&#58890;" d="M512.103132 575.879021a106.221743 106.221743 0 1 0-75.507022-31.354611A106.221743 106.221743 0 0 0 512.103132 575.879021m0 63.989002a170.850635 170.850635 0 1 1 120.939214-49.911422A169.570855 169.570855 0 0 1 512.103132 639.868023zM805.172761 771.685367a407.609942 407.609942 0 0 1-586.139257 0 431.285873 431.285873 0 0 1 0-599.576948L512.103132-128l293.069629 300.108419a431.285873 431.285873 0 0 1 0 599.576948z m-44.152411-557.344207l-248.917218-255.956007-248.917217 255.956007a365.377201 365.377201 0 0 0 0 508.712565 346.82039 346.82039 0 0 0 497.834435 0 365.377201 365.377201 0 0 0 0-508.712565z"  horiz-adv-x="1024" />

    
    <glyph glyph-name="lingjuanzhongxin" unicode="&#58899;" d="M53.216 613.898c0.464 67.559 55.348 122.162 122.429 121.698l672.717 0.007c31.917 0 63.313-13.104 86.323-36.114 23.199-23.199 36.198-54.786 35.734-86.618l0.443-152.082-33.154-2.545c-19.635-1.09-37.4-10.011-50.476-25.308-12.837-15.073-19.066-34.054-17.399-53.534 2.489-36.725 31.727-65.963 68.403-68.192l32.556-2.51v-152.764c0.443-32.781-12.38-63.686-35.748-87.054-23.031-23.031-54.068-35.734-86.695-35.741l-672.351 0.007c-32.753-0.471-63.672 12.366-87.04 35.734-23.031 23.031-35.741 54.075-35.741 86.695V329.248l38.068-2.538c19.08-1.645 38.04 4.633 53.07 17.47 15.185 13.498 23.973 31.143 25.379 51.179 1.631 19.037-4.598 38.019-17.414 53.07-12.802 14.981-30.883 23.952-50.771 25.351-4.394 0.288-6.904 0.295-10.735-0.007l-37.597-2.503V613.897z m49.71-90.4c35.172-2.454 65.654-17.568 87.208-42.806 21.379-25.09 31.91-57.176 29.161-89.198-2.306-32.704-17.09-62.406-42.286-84.79-21.301-18.208-47.327-28.612-74.083-29.864v-121.269l-0.001-0.346c0-19.987 8.094-38.085 21.183-51.192l-0.001 0.001c13.976-13.976 31.994-21.449 51.545-21.175l672.696-0.014 0.346-0.001c19.991 0 38.091 8.097 51.199 21.19l-0.001-0.001c13.976 13.976 21.456 32.001 21.175 51.545l0.007 107.652c-54.764 9.631-96.994 55.854-100.819 112.362-2.777 32.402 7.754 64.487 29.154 89.613 18.848 22.039 44.022 36.416 71.602 41.119l-0.309 106.829c0.281 18.742-7.417 37.421-21.175 51.179-13.723 13.723-32.493 21.554-51.179 21.554H175.484c-39.685 0.274-72.241-32.085-72.558-72.08v-90.309z m255.677-201.222c-6.278-6.278-9.238-14.412-8.872-22.904 0-17.744 13.681-31.425 31.79-31.79l261.695-0.007c8.865-0.007 17.364 4.063 23.649 10.348 5.547 6.278 8.872 14.046 8.134 22.18 0 8.858-3.332 16.633-9.238 22.538-5.919 5.919-14.046 9.617-22.546 9.245H381.527c-8.872 0-16.633-3.332-22.918-9.617z m299.764 133.431c5.54 6.285 8.865 14.053 8.127 22.187-0.366 8.492-3.332 16.633-9.238 22.538-5.919 5.919-14.046 9.617-22.546 9.245H388.544c-8.872 0-16.64-3.325-22.925-9.61-6.278-6.278-9.238-14.412-8.858-22.918-0.007-8.865 2.946-16.261 9.231-22.546s13.681-9.238 22.546-9.231l246.173-0.035c9.238-0.366 17.744 3.698 23.656 10.355z"  horiz-adv-x="1024" />

    
    <glyph glyph-name="daipingjia" unicode="&#58947;" d="M537.9 383.9H330.8c-14.6 0.4-26 12.6-25.6 27.1 0.4 14 11.6 25.2 25.6 25.6h207.1c14.6-0.4 26-12.6 25.6-27.1-0.4-13.9-11.6-25.2-25.6-25.6z m129.4 26.4c-0.3-14.3-12.1-25.7-26.4-25.4-14.3 0.3-25.7 12.1-25.4 26.4 0.3 14.1 11.8 25.4 25.9 25.4 14.4-0.2 26-12 25.9-26.4zM408.5 515.7c-0.1 14.4 11.5 26.2 25.9 26.4h258.8c14.6-0.4 26-12.6 25.6-27.1-0.4-14-11.6-25.2-25.6-25.6H434.4c-14.5 0.1-26 11.9-25.9 26.3z m414.1-342.6h-233c-16.8 0-33.1-5.5-46.5-15.7l-163.7-125c-0.2-0.2-0.4-0.3-0.6-0.5-13.6-10.9-30.5-16.9-48-16.9-43.3 0.4-78 35.8-77.6 79.1v52.7c0.1 14.4-11.5 26.2-25.9 26.3h-25.9c-57.7 0.5-104 47.7-103.5 105.4V621.1c0 14.3 11.6 25.9 25.9 25.9s25.9-11.6 25.9-25.9v-329.5c-0.3-36 28.6-65.5 64.7-65.9h25.8c36.1-0.3 65-29.8 64.7-65.9V94c-0.1-14.4 11.5-26.2 25.9-26.4 5.3 0 10.4 1.6 14.7 4.7l164.8 125.8c22.5 17.9 50.5 27.6 79.2 27.5h220c36.1 0.3 65 29.8 64.7 65.9V634.2c0.3 36.1-28.6 65.5-64.7 65.9H330.8c-14.6 0.4-26 12.6-25.6 27.1 0.4 14 11.6 25.2 25.6 25.6h491.8c57.7-0.5 104-47.7 103.5-105.4v-369c0.5-57.7-45.8-104.9-103.5-105.4v0.1zM227.3 700.3c-14.6-0.3-26.6 11.3-26.8 25.9-0.3 14.6 11.3 26.6 25.9 26.8 14.6 0.3 26.6-11.3 26.8-25.9v-0.5c0.1-14.4-11.5-26.2-25.9-26.3z"  horiz-adv-x="1024" />

    
    <glyph glyph-name="jianglijin" unicode="&#59067;" d="M76.8 640c0-143.9232 194.7136-256 435.2-256S947.2 496.0768 947.2 640s-194.7136 256-435.2 256S76.8 783.9232 76.8 640zM512 279.1424c-187.3408 0-341.504 64.7168-408.6272 148.2752C89.856 404.48 76.8 381.952 76.8 351.6416 76.8 229.9904 271.104 128 512 128s435.2 101.9904 435.2 223.6416c0 30.3104-13.5168 53.248-26.5728 83.5584-67.072-91.3408-221.2864-156.0576-408.6272-156.0576zM512 30.9248c-187.3408 0-341.504 64.7168-408.6272 148.2752C89.856 148.8896 76.8 125.952 76.8 95.6416 76.8-26.0096 271.104-128 512-128s435.2 94.6176 435.2 223.6416c0 30.3104-13.5168 53.248-26.5728 83.5584-67.072-90.9312-221.2864-148.2752-408.6272-148.2752z"  horiz-adv-x="1024" />

    
    <glyph glyph-name="kanguo-copy" unicode="&#58891;" d="M1050.34666667 411.41333333c-60.69333333 98.24-275.62666667 353.06666667-538.24 353.06666667S34.56 509.65333333-26.13333333 411.41333333c-10.45333333-16.96-10.45333333-38.08 0-55.04 60.58666667-98.13333333 275.52-352.96 538.24-352.96s477.54666667 254.82666667 538.24 353.06666667c10.34666667 16.85333333 10.34666667 37.97333333 0 54.93333333zM512.10666667 73.17333332999999c-247.25333333 0-437.01333333 258.56-472.74666667 310.72 35.73333333 52.26666667 225.6 310.72 472.74666667 310.72s437.01333333-258.56 472.74666666-310.72c-35.84-52.26666667-225.6-310.72-472.74666666-310.72zM512.10666667 622.72c-131.62666667 0-238.72-107.09333333-238.72-238.72s107.09333333-238.72 238.72-238.72S750.82666667 252.37333333000004 750.82666667 384 643.73333333 622.72 512.10666667 622.72z m0-407.78666667c-93.12 0-168.96 75.73333333-168.96 168.96s75.84 168.96 168.96 168.96c93.12 0 168.96-75.84 168.96-168.96s-75.84-168.96-168.96-168.96z"  horiz-adv-x="1024" />

    
    <glyph glyph-name="jiankangdangan1" unicode="&#58999;" d="M400.457143 698.514286h219.428571c51.2 0 96.914286 38.4 102.4 89.6C725.942857 846.628571 678.4 896 621.714286 896H402.285714c-51.2 0-96.914286-38.4-102.4-89.6-3.657143-58.514286 42.057143-107.885714 100.571429-107.885714zM526.628571-56.685714H230.4c-47.542857 0-85.942857 40.228571-85.942857 87.771428v658.285715c0 49.371429 38.4 87.771429 85.942857 87.771428 20.114286 0 34.742857 16.457143 34.742857 34.742857s-16.457143 34.742857-34.742857 34.742857C142.628571 850.285714 73.142857 777.142857 73.142857 689.371429v-658.285715c0-87.771429 71.314286-159.085714 157.257143-159.085714h298.057143c20.114286 0 34.742857 16.457143 34.742857 34.742857 0 20.114286-16.457143 36.571429-36.571429 36.571429zM791.771429 850.285714c-20.114286 0-34.742857-16.457143-34.742858-34.742857s16.457143-34.742857 34.742858-34.742857c47.542857 0 85.942857-40.228571 85.942857-87.771429v-325.485714c0-20.114286 16.457143-34.742857 34.742857-34.742857 20.114286 0 34.742857 16.457143 34.742857 34.742857V693.028571c1.828571 84.114286-69.485714 157.257143-155.428571 157.257143zM877.714286 279.771429c-51.2 31.085714-117.028571 23.771429-164.571429-16.457143-47.542857 38.4-113.371429 45.714286-164.571428 16.457143-40.228571-23.771429-65.828571-62.171429-73.142858-107.885715-5.485714-45.714286 9.142857-91.428571 40.228572-124.342857l157.257143-159.085714c10.971429-10.971429 23.771429-16.457143 38.4-16.457143s29.257143 5.485714 38.4 16.457143l157.257143 159.085714c32.914286 32.914286 47.542857 76.8 40.228571 124.342857-3.657143 45.714286-29.257143 85.942857-69.485714 107.885715z m-20.114286-181.028572l-146.285714-148.114286-146.285715 148.114286c-16.457143 16.457143-23.771429 40.228571-21.942857 64 3.657143 23.771429 16.457143 43.885714 38.4 56.685714 10.971429 5.485714 21.942857 9.142857 34.742857 9.142858 20.114286 0 42.057143-9.142857 56.685715-23.771429l12.8-12.8c7.314286-7.314286 16.457143-10.971429 25.6-10.971429 9.142857 0 18.285714 3.657143 25.6 10.971429l12.8 12.8c25.6 25.6 64 31.085714 91.428571 16.457143 21.942857-12.8 34.742857-32.914286 38.4-56.685714 3.657143-25.6-3.657143-49.371429-21.942857-65.828572zM524.8 332.8h-137.142857c-21.942857 0-40.228571 18.285714-40.228572 40.228571 0 21.942857 18.285714 40.228571 40.228572 40.228572h137.142857c21.942857 0 40.228571-18.285714 40.228571-40.228572 0-21.942857-18.285714-40.228571-40.228571-40.228571zM634.514286 477.257143H387.657143c-21.942857 0-40.228571 18.285714-40.228572 40.228571 0 21.942857 18.285714 40.228571 40.228572 40.228572h246.857143c21.942857 0 40.228571-18.285714 40.228571-40.228572 0-21.942857-18.285714-40.228571-40.228571-40.228571zM418.742857 755.2H603.428571c21.942857 0 42.057143 16.457143 45.714286 38.4 1.828571 25.6-18.285714 47.542857-42.057143 47.542857H422.4c-21.942857 0-42.057143-16.457143-45.714286-38.4-1.828571-27.428571 18.285714-47.542857 42.057143-47.542857z"  horiz-adv-x="1024" />

    
    <glyph glyph-name="querentuikuan" unicode="&#58892;" d="M732.470651 426.098645c14.990176 0 27.135917 11.576854 27.135917 25.998142 0 14.307512-12.145741 25.998143-27.135917 25.998143h-150.186208l90.253946 103.338351a25.116368 25.116368 0 0 1-3.384878 36.522555 27.960803 27.960803 0 0 1-38.200772-3.271101l-119.380969-136.703582h11.0933l-119.267191 136.589805a27.87547 27.87547 0 0 1-38.200773 3.271101 25.144812 25.144812 0 0 1-3.413323-36.522555l90.253947-103.338351H301.794633c-14.990176 0-27.135917-11.576854-27.135917-25.998143 0-14.307512 12.145741-25.998143 27.135917-25.998143h185.855433v-123.135623h-185.855433c-14.990176 0-27.135917-11.576854-27.135917-25.969699 0-14.335956 12.145741-25.998143 27.135917-25.998143h185.855433v-141.027124c0-14.307512 12.145741-25.998143 27.107472-25.998143 14.904843 0 27.135917 11.576854 27.135917 25.998143v141.226235h190.520307c14.990176 0 27.107473 11.576854 27.107473 25.998143 0 14.307512-12.117296 25.998143-27.107473 25.998142H541.865011V426.098645h190.60564zM517.061531-127.99744c-69.774009 0-137.414691 13.482625-201.158496 40.191877a514.330873 514.330873 0 0 0-164.351498 109.681443 510.092664 510.092664 0 0 0-110.819217 162.787058A505.968232 505.968232 0 0 0 0 384.000996c0 69.034456 13.624847 136.191584 40.73232 199.338057A512.965544 512.965544 0 0 0 151.551537 746.097667a515.497092 515.497092 0 0 0 164.351498 109.681443A519.194858 519.194858 0 0 0 517.061531 895.999431c106.495675 0 208.667807-31.772347 295.622208-91.989052a512.368212 512.368212 0 0 0 186.82254-235.832168 31.943014 31.943014 0 0 0-18.261277-41.358096 32.11368 32.11368 0 0 0-41.471874 18.204389 447.259078 447.259078 0 0 1-163.5835 206.363813 454.284834 454.284834 0 0 1-259.128097 80.298422 448.51063 448.51063 0 0 1-176.269683-35.128782 453.915057 453.915057 0 0 1-143.92845-96.08504A444.215532 444.215532 0 0 1 64.284248 383.801885c0-60.415815 11.918186-119.153414 35.555447-174.278579a445.922193 445.922193 0 0 1 96.995259-142.392453 454.398612 454.398612 0 0 1 320.340355-131.327599c98.133033 0 191.572748 30.606129 270.079174 88.376619a451.411954 451.411954 0 0 1 98.275256 99.043253 443.504423 443.504423 0 0 1 63.430917 125.240506 32.085235 32.085235 0 1 0 61.212257-19.342163 509.097111 509.097111 0 0 0-72.533111-143.274229A517.289086 517.289086 0 0 0 517.061531-127.99744z m468.194125 595.340403l-164.977274 94.093935L1080.885586 631.125574l-95.62993-163.782611z"  horiz-adv-x="1080" />

    
    <glyph glyph-name="zixun1" unicode="&#58959;" d="M236.8 588.8h550.4c12.8 0 25.6 12.8 25.6 25.6s-12.8 25.6-25.6 25.6H236.8c-12.8 0-25.6-12.8-25.6-25.6 0-19.2 12.8-25.6 25.6-25.6zM236.8 377.6h550.4c12.8 0 25.6 12.8 25.6 25.6s-12.8 25.6-25.6 25.6H236.8c-12.8 0-25.6-12.8-25.6-25.6s12.8-25.6 25.6-25.6zM998.4 876.8H25.6C12.8 876.8 0 870.4 0 857.6v-940.8c0-12.8 6.4-19.2 19.2-25.6h6.4c6.4 0 12.8 6.4 19.2 12.8l192 262.4c6.4 12.8 6.4 25.6-6.4 32-12.8 6.4-25.6 6.4-32-6.4L51.2-6.4V832h928v-633.6h-640c-12.8 0-25.6-12.8-25.6-25.6s12.8-25.6 25.6-25.6h659.2c12.8 0 25.6 12.8 25.6 25.6V857.6c0 12.8-12.8 19.2-25.6 19.2z"  horiz-adv-x="1024" />

    
    <glyph glyph-name="yiliao" unicode="&#59075;" d="M608.180148 703.81037l0.094815-0.094814v-237.662815H845.937778l0.075852-0.094815v-178.138074l-0.075852-0.094815H608.274963V50.062222l-0.094815-0.075852h-178.138074l-0.094815 0.075852V287.725037H192.284444l-0.094814 0.094815v178.138074l0.094814 0.094815h237.662815V703.715556l0.094815 0.094814h178.138074zM608.274963 763.259259h-178.327704a59.619556 59.619556 0 0 1-59.448889-59.448889v-178.30874h-178.30874A59.619556 59.619556 0 0 1 132.740741 466.052741v-178.327704a59.619556 59.619556 0 0 1 59.448889-59.448889h178.30874v-178.308741a59.619556 59.619556 0 0 1 59.448889-59.448888h178.327704a59.619556 59.619556 0 0 1 59.448889 59.448888v178.308741h178.308741a59.619556 59.619556 0 0 1 59.448888 59.448889v178.327704a59.619556 59.619556 0 0 1-59.448888 59.448889h-178.308741v178.30874A59.619556 59.619556 0 0 1 608.274963 763.259259z"  horiz-adv-x="1024" />

    
    <glyph glyph-name="zixun" unicode="&#60043;" d="M252 30.109V164.2H136c-39.765 0-72 32.235-72 72V685.927c0 39.765 32.235 72 72 72h752c39.765 0 72-32.235 72-72V236.2c0-39.765-32.235-72-72-72H493.625L283.644 13.847c-13.236-9.476-31.644-0.016-31.644 16.262zM136 693.927c-4.336 0-8-3.664-8-8V236.2c0-4.336 3.664-8 8-8h180v-112.469L473.074 228.2H888c4.336 0 8 3.664 8 8V685.927c0 4.336-3.664 8-8 8H136zM536.5 342h-243c-17.325 0-31.5 14.175-31.5 31.5v1c0 17.325 14.175 31.5 31.5 31.5h243c17.325 0 31.5-14.175 31.5-31.5v-1c0-17.325-14.175-31.5-31.5-31.5zM730.5 514h-437c-17.325 0-31.5 14.175-31.5 31.5v1c0 17.325 14.175 31.5 31.5 31.5h437c17.325 0 31.5-14.175 31.5-31.5v-1c0-17.325-14.175-31.5-31.5-31.5z"  horiz-adv-x="1024" />

    
    <glyph glyph-name="wode" unicode="&#58888;" d="M656.827077 328.201846l30.360615 34.702769M656.827077 328.201846l54.764308 16.615385M656.827077 328.201846l49.841231-16.201846M656.827077 328.201846l37.326769-45.952M656.827077 328.201846l-0.009846-51.081846M656.827077 328.201846l-34.269539-45.341538M656.827077 328.201846l-45.144615-16.009846M656.827077 328.201846l-51.707077 15.788308M656.827077 328.201846l-27.707077 37.730462M656.827077 328.201846l-0.206769 50.057846M364.396308 564.770462m-3.229539 0a3.229538 3.229538 0 1 1 6.459077 0 3.229538 3.229538 0 1 1-6.459077 0ZM380.002462 551.689846m-3.229539 0a3.229538 3.229538 0 1 1 6.459077 0 3.229538 3.229538 0 1 1-6.459077 0ZM503.355077 664.516923m-174.020923 0a174.020923 174.020923 0 1 1 348.041846 0 174.020923 174.020923 0 1 1-348.041846 0ZM150.493538 29.961846s0 351.891692 228.819693 397.075692l115.382154-140.371692-182.675693-256.708923h-161.526154zM369.708308 29.961846l280.743384 397.075692s209.590154-11.539692 223.05477-397.075692H369.708308z"  horiz-adv-x="1024" />

    
    <glyph glyph-name="zhaoyaoshi" unicode="&#58909;" d="M878.6 118.8c0-42.1-12.7-75-38-98.9-25.3-24-59-35.9-101-35.9H284.4c-42.1 0-75.7 11.9-101 35.9-25.3 24-38 57-38 98.9 0 23.7 1 46.3 2.8 68.2 1.9 21.9 6 45.8 12.5 71.9s14.7 49.1 24.8 69c10.1 19.9 24.1 37.8 42.2 53.7 18.1 15.8 38.9 26.3 62.5 31.5-7.7-18.1-11.5-38.9-11.5-62.5v-105.7c-20.2-6.9-36.3-19.1-48.4-36.5-12.2-17.4-18.2-36.6-18.2-57.8 0-27.8 9.7-51.4 29.1-70.9s43.1-29.1 70.9-29.1 51.4 9.7 70.9 29.1c19.4 19.4 29.1 43.1 29.1 70.9 0 21.1-6.1 40.4-18.5 57.8-12.4 17.3-28.4 29.5-48.2 36.5V350.6c0 21.6 4.4 37.7 13 48.4 45.8-36.1 97.1-54.1 153.7-54.1S619.9 363 665.8 399c8.7-10.7 13-26.9 13-48.4v-33.3c-36.8 0-68.2-13-94.3-39.1-26.1-26.1-39.1-57.5-39.1-94.3v-46.3c-11.1-10.1-16.7-22.3-16.7-37 0-13.9 4.8-25.7 14.6-35.4 9.7-9.7 21.6-14.6 35.4-14.6 13.9 0 25.7 4.8 35.4 14.6 9.7 9.7 14.6 21.6 14.6 35.4 0 14.6-5.6 26.9-16.7 37v46.3c0 18.1 6.6 33.6 19.8 46.9 13.1 13.1 28.8 19.8 46.9 19.8s33.6-6.6 46.9-19.8c13.1-13.3 19.8-28.8 19.8-46.9v-46.3c-11.1-10.1-16.7-22.3-16.7-37 0-13.9 4.8-25.7 14.6-35.4 9.7-9.7 21.5-14.6 35.4-14.6s25.7 4.8 35.4 14.6c9.7 9.7 14.6 21.6 14.6 35.4 0 14.6-5.6 26.9-16.7 37v46.3c0 23.7-6 45.8-18 66.4-11.9 20.7-28.3 36.9-48.7 48.7 0 3.5 0.1 10.8 0.2 22.1 0.2 11.3 0.2 19.6 0 25-0.2 5.4-0.7 12.6-1.3 21.6-0.7 9-1.9 17.2-3.6 24.4-1.8 7.3-3.9 14.2-6.8 20.8 23.7-5.3 44.5-15.7 62.5-31.5 18.1-15.8 32.1-33.7 42.2-53.7s18.3-42.9 24.8-69 10.6-50 12.5-71.9c2-21.5 2.8-44.3 2.8-68z m-543.2 55.3c6.6-6.6 9.9-14.5 9.9-23.4 0-9-3.3-16.9-9.9-23.4-6.6-6.6-14.5-9.9-23.4-9.9s-16.9 3.3-23.4 9.9-9.9 14.5-9.9 23.4c0 9 3.3 16.9 9.9 23.4S303 184 312 184c9.1 0 16.8-3.3 23.4-9.9z m318 551.3C692.5 686.3 712 639.2 712 584s-19.5-102.3-58.6-141.4S567.2 384 512 384s-102.3 19.5-141.4 58.6S312 528.8 312 584s19.5 102.3 58.6 141.4S456.8 784 512 784s102.3-19.5 141.4-58.6z"  horiz-adv-x="1024" />

    
    <glyph glyph-name="shangdian_huaban" unicode="&#58886;" d="M833.82662568 251.64705907999996c-11.14551123 0-19.50464355-8.3591332-19.50464443-19.50464443v-183.90092871c0-11.14551123-8.3591332-19.50464355-19.50464355-19.50464355H245.90092871c-11.14551123 0-19.50464355 8.3591332-19.50464355 19.50464355v183.90092871c0 11.14551123-8.3591332 19.50464355-19.50464444 19.50464443-11.14551123 0-19.50464355-8.3591332-19.50464355-19.50464443v-183.90092871c0-30.65015479 25.07739961-55.7275544 55.72755351-55.7275544H794.81733769c30.65015479 0 55.7275544 25.07739961 55.72755352 55.7275544v183.90092871c0 11.14551123-5.57275518 19.50464355-16.71826553 19.50464443z m55.72755352 278.63777022c0 8.3591332-2.78637802 13.93188838-5.57275517 22.29102246 0 0-86.37770918 147.67801875-86.37770919 150.4643959-8.3591332 16.71826641-16.71826641 27.86377675-52.94117636 27.86377676H301.6284831c-30.65015479 0-44.58204316-13.93188838-55.72755438-30.65015479l-83.59133116-144.89164072c-5.57275518-8.3591332-8.3591332-16.71826641-8.35913321-27.86377676v-128.17337432c0-61.30030957 47.36842119-111.45510878 105.88235274-111.45510879 36.22290997 0 66.87306474 16.71826641 86.37770918 47.36842119 19.50464355-30.65015479 52.94117637-47.36842119 86.37770918-47.36842119 36.22290997 0 66.87306474 16.71826641 86.37770918 47.36842119 19.50464355-30.65015479 52.94117637-47.36842119 86.3777083-47.36842119 36.22290997 0 66.87306474 16.71826641 86.37770918 47.36842119 19.50464355-30.65015479 52.94117637-47.36842119 86.37770918-47.36842119 58.51393154 0 105.88235273 50.15479834 105.88235274 111.45510879l5.57275517 130.95975147c0-2.78637802 0-2.78637802 0 0z m-613.00309571 147.67801875c5.57275518 8.3591332 11.14551123 13.93188838 22.29102159 13.93188838H739.0897833c11.14551123 0 16.71826641 0 22.29102158-13.93188838 13.93188838-22.29102158 50.15479834-83.59133115 55.72755439-94.73684151H220.8235291c5.57275518 11.14551123 44.58204316 72.4458208 55.72755439 94.73684151z m573.99380773-278.63777022c0-39.00928799-30.65015479-72.4458208-69.6594419-72.4458208S711.22600654 360.31578984 711.22600654 399.32507783v19.50464355c0 11.14551123-8.3591332 19.50464355-19.50464443 19.50464356-11.14551123 0-19.50464355-8.3591332-19.50464355-19.50464356v-19.50464355c0-39.00928799-30.65015479-72.4458208-69.65944278-72.4458208s-69.65944278 33.43653281-69.65944278 72.4458208v19.50464355c0 11.14551123-8.3591332 19.50464355-19.50464443 19.50464356-11.14551123 0-19.50464355-8.3591332-19.50464355-19.50464356v-19.50464355c0-39.00928799-30.65015479-72.4458208-69.65944278-72.4458208s-69.65944278 33.43653281-69.65944276 72.4458208v19.50464355c0 11.14551123-8.3591332 19.50464355-19.50464356 19.50464356-11.14551123 0-19.50464355-8.3591332-19.50464444-19.50464356v-19.50464355c0-39.00928799-30.65015479-72.4458208-69.65944277-72.4458208S176.24148594 360.31578984 176.24148594 399.32507783V527.49845215c0 8.3591332 8.3591332 16.71826641 16.7182664 16.7182664h626.93498409c8.3591332 0 16.71826641-8.3591332 16.7182664-16.71826641v-128.17337431z"  horiz-adv-x="1024" />

    
    <glyph glyph-name="gouwuche" unicode="&#58905;" d="M941.527805 144.215655H387.447784a69.584731 69.584731 0 0 0-69.399172 58.080055l-64.945749 442.930011a66.059105 66.059105 0 0 0 15.58698 52.698836 71.254765 71.254765 0 0 0 53.812192 24.308266h683.600401a70.512528 70.512528 0 0 0 53.626633-24.308266 66.059105 66.059105 0 0 0 15.58698-52.698836l-64.574631-442.744451a69.399172 69.399172 0 0 0-69.213613-58.265615zM322.502035 685.492085a34.328467 34.328467 0 0 1-25.79274-11.504675 28.947248 28.947248 0 0 1-6.865694-23.009352l64.574631-442.93001a32.287315 32.287315 0 0 1 33.029552-26.720537h554.45114a32.101756 32.101756 0 0 1 32.472874 26.163859l64.574631 442.93001a27.648333 27.648333 0 0 1-6.865693 23.009352 33.77179 33.77179 0 0 1-25.607181 11.504675zM972.330646-127.999814a122.654686 122.654686 0 1 0 122.654687 122.654686 122.840246 122.840246 0 0 0-122.654687-122.654686z m0 208.011957a85.54283 85.54283 0 1 1 85.54283-85.357271 85.54283 85.54283 0 0 1-85.54283 85.357271zM347.18142-127.999814a122.654686 122.654686 0 1 0 122.469127 122.654686 122.840246 122.840246 0 0 0-122.469127-122.654686z m0 208.011957a85.54283 85.54283 0 1 1 85.35727-85.357271 85.54283 85.54283 0 0 1-85.35727 85.357271zM284.647941 537.601336a18.555928 18.555928 0 0 0-17.442573 15.401421l-37.111856 215.248769a77.563781 77.563781 0 0 1-63.832394 64.57463L16.329217 858.618897a18.815711 18.815711 0 1 0 6.309016 37.111856l151.416375-25.79274a113.562282 113.562282 0 0 0 94.449675-95.74859l37.111857-214.506532a18.555928 18.555928 0 0 0-15.215861-21.339318 13.731387 13.731387 0 0 0-5.752338-0.742237z"  horiz-adv-x="1095" />

    
    <glyph glyph-name="daishouhuo" unicode="&#58918;" d="M792.74 548.52h34.56c2.52 0 9.18-3.18 10.8-5.28l151.8-190.68c0.96-1.14 3.060-7.080 3.060-8.64v-232.92c0-11.88-4.86-22.74-12.72-30.66-7.92-7.86-18.72-12.72-30.72-12.72h-52.62c-6.48-53.7-50.76-95.1-104.16-98.76v27.84c43.14 3.9 77.28 40.56 77.28 84.66 0 44.22-34.080 80.64-77.28 84.54v28.020c53.34-3.72 97.44-44.94 104.1-98.4h52.68c4.38 0 8.28 1.68 11.1 4.5 2.76 2.88 4.56 6.72 4.56 11.1v168.72h-172.44v27.78h172.44v31.62l-77.1 96.96h-95.34v27.72h73.2l-45.36 56.88h-27.84v27.72zM344.48 694.14c17.22-9.6 32.94-21.54 46.74-35.34v0c6.78-6.78 13.020-13.92 18.84-21.48h154.44c15.3 0 29.34-6.3 39.36-16.32v-0.060c10.2-10.14 16.38-24 16.38-39.36v-33h172.5v-27.78h-172.5v-425.28h53.040c6.96 55.98 55.14 98.64 111.84 98.64 2.52 0 4.98-0.060 7.62-0.18v-27.96c-2.58 0.3-5.1 0.48-7.62 0.48-46.62 0-84.96-38.34-84.96-84.96 0-46.74 38.22-84.96 84.96-84.96 2.52 0 5.040 0.060 7.62 0.36v-27.9c-2.64-0.12-5.1-0.24-7.62-0.24-56.7 0-105.060 42.96-111.96 98.94h-281.040c-4.020-32.76-22.020-60.96-47.64-78.78v37.020c12.84 14.88 20.7 34.26 20.7 55.5 0 21.12-7.8 40.5-20.7 55.44v36.96c25.5-17.76 43.5-45.78 47.52-78.36h200.4v486c0 7.74-3.18 14.7-8.28 19.8v-0.060c-4.98 5.16-12 8.22-19.62 8.22h-136.5c15.9-29.64 25.020-63.54 25.020-99.48 0-57.96-23.64-110.64-61.74-148.74-13.8-13.86-29.58-25.8-46.74-35.4v32.64c9.72 6.6 18.84 14.040 27.12 22.44 33.060 33.060 53.58 78.78 53.58 129.060 0 50.34-20.46 96-53.64 129.12v0.12c-8.28 8.28-17.4 15.78-27.12 22.44v32.46zM792.74 463.86h-32.64c-24.54 0-44.7-20.16-44.7-44.7v-94.98c0-24.24 20.1-44.34 44.22-44.34h33.12v27.78h-33.12c-8.88 0-16.44 7.44-16.44 16.5v95.040c0 9.24 7.8 16.98 16.98 16.98h32.58v27.72zM242.54 720.54c36.9 0 71.7-9.6 101.94-26.46v-32.46c-29.16 19.62-64.2 31.14-101.94 31.14-11.4 0-22.62-1.020-33.48-3.060v28.2c10.92 1.74 22.080 2.64 33.48 2.64v0 0zM344.48-11.040c-18.36-12.78-40.5-20.28-64.26-20.28-26.82 0-51.6 9.48-71.1 25.44v41.040c15.18-23.28 41.4-38.7 71.1-38.7 25.62 0 48.66 11.4 64.26 29.52v-37.020zM344.48 358.5v-32.52c-30.24-16.86-64.98-26.4-101.94-26.4-11.4 0-22.56 0.9-33.48 2.64v28.2c10.8-2.040 22.020-3.12 33.48-3.12 37.68 0 72.78 11.58 101.94 31.2v0 0zM344.48 173.88v-37.020c-15.6 18.12-38.64 29.58-64.26 29.58-29.64 0-55.92-15.54-71.1-38.82v41.040c19.5 15.96 44.34 25.44 71.1 25.44 23.76 0 45.9-7.5 64.26-20.22v0 0zM209.12 463.86v36.3l19.5 16.38v119.94c0 19.86 27.78 19.86 27.78 0v-126.42c0-2.46-3-9-4.92-10.68l-42.36-35.52zM209.12-5.88c-21.96 17.94-37.080 43.86-40.74 73.62h-43.86c-30.66 0-55.74 25.2-55.74 55.86v267.9c-23.16 33.78-36.78 74.64-36.78 118.56 0 57.96 23.64 110.64 61.74 148.8 30.66 30.54 70.74 51.9 115.38 59.1v-28.26c-37.020-6.84-70.14-24.96-95.76-50.52-33.060-33.12-53.58-78.84-53.58-129.12s20.46-96 53.64-129.060h-0.12c25.62-25.62 58.74-43.68 95.76-50.52v-28.14c-43.32 6.84-82.26 27.12-112.56 56.4v-235.2c0-15.42 12.54-28.020 27.96-28.020h43.92c3.72 29.52 18.84 55.38 40.68 73.2v-41.16c-8.76-13.26-13.8-29.1-13.8-46.14 0-17.1 5.040-33.060 13.8-46.32l0.060-40.98zM209.12 500.16l-21.96-18.42-19.62-16.5c-15.12-12.72 2.88-33.96 17.94-21.24l23.64 19.86v36.3zM209.12 500.16z"  horiz-adv-x="1026" />

    
    <glyph glyph-name="quanbudingdan" unicode="&#58964;" d="M819.2-128H204.8a136.533333 136.533333 0 0 0-136.533333 136.533333V691.2a136.533333 136.533333 0 0 0 136.533333 136.533333h68.266667v-68.266666H204.8a68.266667 68.266667 0 0 1-68.266667-68.266667v-682.666667a68.266667 68.266667 0 0 1 68.266667-68.266666h614.4a68.266667 68.266667 0 0 1 68.266667 68.266666V691.2a68.266667 68.266667 0 0 1-68.266667 68.266667h-68.266667V827.733333h68.266667a136.533333 136.533333 0 0 0 136.533333-136.533333v-682.666667a136.533333 136.533333 0 0 0-136.533333-136.533333zM273.066667 554.666667h477.866666v-68.266667H273.066667V554.666667z m477.866666-477.866667H273.066667v68.266667h477.866666v-68.266667zM273.066667 349.866667h477.866666v-68.266667H273.066667V349.866667z m273.066666 409.6h68.266667v-68.266667H409.6V759.466667h68.266667V827.733333H341.333333V896h341.333334v-68.266667H546.133333v-68.266666z"  horiz-adv-x="1024" />

    
    <glyph glyph-name="shouhou" unicode="&#58900;" d="M818.93181-24.892952v71.972571c0 46.372571-35.157333 84.309333-105.496381 113.90781-70.339048 29.574095-137.508571 44.348952-201.435429 44.348952-63.975619 0-131.096381-14.774857-201.435429-44.373333-70.363429-29.574095-105.545143-67.510857-105.545142-113.932191v-71.923809h613.912381z m-306.907429 613.912381c-41.593905 0-77.531429-15.164952-107.934476-45.543619-30.378667-30.403048-45.543619-66.364952-45.543619-107.934477 0-41.569524 15.164952-77.531429 45.543619-107.910095 30.403048-30.403048 66.364952-45.568 107.934476-45.568 41.569524 0 77.531429 15.189333 107.910095 45.568 30.403048 30.403048 45.568 66.340571 45.568 107.910095 0 41.593905-15.189333 77.531429-45.568 107.934477-30.403048 30.378667-66.340571 45.543619-107.910095 45.543619z m0 203.849142c-14.409143 0-26.404571-4.803048-35.961905-14.409142-9.606095-9.557333-14.409143-21.577143-14.409143-35.937524 0-14.409143 4.803048-26.794667 14.409143-37.180953 9.606095-10.410667 21.577143-15.579429 35.961905-15.579428 14.409143 0 26.38019 5.193143 35.961905 15.579428a52.906667 52.906667 0 0 1 14.409143 37.180953c0 14.409143-4.803048 26.38019-14.409143 35.961905-9.606095 9.606095-21.601524 14.409143-35.961905 14.409142v-0.024381z m357.327238 0c27.209143 0 51.175619-10.361905 71.948191-31.158857 20.796952-20.796952 31.207619-44.763429 31.207619-71.923809V-24.868571c0-27.160381-10.410667-51.126857-31.207619-71.92381-20.821333-20.845714-44.78781-31.207619-71.948191-31.207619H154.648381c-27.160381 0-51.126857 10.410667-71.92381 31.158857-20.796952 20.796952-31.158857 44.81219-31.158857 71.92381V689.761524c0 27.209143 10.410667 51.175619 31.158857 71.923809 20.796952 20.796952 44.81219 31.207619 71.92381 31.207619h213.430857A160.329143 160.329143 0 0 0 423.253333 867.230476C448.853333 886.393905 478.427429 896 512 896c33.572571 0 63.146667-9.606095 88.722286-28.793905a159.792762 159.792762 0 0 0 55.149714-74.313143h213.430857l0.048762-0.024381z m0 0"  horiz-adv-x="1024" />

    
    <glyph glyph-name="zuo" unicode="&#58881;" d="M704-64c-19.2 0-32 6.4-44.8 19.2l-384 384C262.4 352 256 364.79999999999995 256 384s6.4 32 19.2 44.8l384 384c25.6 25.6 64 25.6 89.6 0 25.6-25.6 25.6-64 0-89.6L409.6 384l339.2-339.2c25.6-25.6 25.6-64 0-89.6-12.8-12.8-25.6-19.2-44.8-19.2z"  horiz-adv-x="1024" />

    
    <glyph glyph-name="daifukuan" unicode="&#58887;" d="M804.2 704H219.4c-45.9 0-83.3-37.4-83.3-83.3v-473.1c0-45.9 37.4-83.3 83.3-83.3h584.9c45.9 0 83.3 37.4 83.3 83.3V620.7c-0.1 45.9-37.4 83.3-83.4 83.3z m-584.8-36.2h584.9c26 0 47.1-21.1 47.1-47.1v-73.2h-679v73.2c-0.1 25.9 21 47.1 47 47.1z m584.8-567.3H219.4c-26 0-47.1 21.1-47.1 47.1V511.3h679v-363.7c0-26-21.1-47.1-47.1-47.1z"  horiz-adv-x="1024" />

    
    <glyph glyph-name="zuo1" unicode="&#58882;" d="M320 832c19.2 0 32-6.4 44.8-19.2l384-384C761.6 416 767.99999999 403.2 767.99999999 384s-6.4-32-19.19999999-44.8l-384-384c-25.6-25.6-64-25.6-89.6 0-25.6 25.6-25.6 64 0 89.6L614.4 384l-339.2 339.2c-25.6 25.6-25.6 64 0 89.6 12.8 12.8 25.6 19.2 44.8 19.2z"  horiz-adv-x="1024" />

    
    <glyph glyph-name="up2" unicode="&#58883;" d="M88.326 557.582L483.919 158.39499999999998c14.055-14.175 36.936-14.272 51.11-0.22000001l0.008 0.00700001c0.145 0.145 0.184 0.33 0.32 0.464 0.61 0.574 1.408 0.719 2.02000001 1.34L936.525 555.5509999999999c14.188 14.069 14.285 36.974 0.219 51.161-14.069 14.189-36.974 14.286-51.162 0.22l-375.566-372.197-370.389 373.78c-13.84 14.392-36.723 14.83799999-51.113 1-14.392-13.84-14.838-36.724-0.999-51.114a25.475 25.475 0 0 1 0.81-0.819z"  horiz-adv-x="1024" />

    
    <glyph glyph-name="up" unicode="&#58884;" d="M935.674 210.418L540.081 609.605c-14.055 14.175-36.936 14.272-51.11 0.22000001l-0.008-0.00700001c-0.145-0.145-0.184-0.33-0.32-0.464-0.61-0.574-1.408-0.719-2.02000001-1.34L87.475 212.44899999999996c-14.188-14.069-14.285-36.974-0.219-51.161 14.069-14.189 36.974-14.286 51.162-0.22l375.566 372.197 370.389-373.78c13.84-14.392 36.723-14.83799999 51.113-1 14.392 13.84 14.838 36.724 0.999 51.114a25.475 25.475 0 0 1-0.81 0.819z"  horiz-adv-x="1024" />

    
    <glyph glyph-name="sousuo" unicode="&#58904;" d="M888.703 48.842l-155.33 155.331c50.041 59.65 80.19 136.551 80.19 220.508 0 189.613-153.703 343.318-343.315 343.318-189.617 0-343.32-153.704-343.32-343.318s153.704-343.319 343.32-343.319c85.053 0 162.867 30.942 222.838 82.164l155.141-155.142c11.175-11.176 29.3-11.176 40.475 0 11.157 11.176 11.157 29.281 0.001 40.458zM470.25 138.584c-158.007 0-286.1 128.09-286.1 286.098 0 158.006 128.093 286.099 286.1 286.099s286.08-128.094 286.08-286.1c0-158.007-128.075-286.097-286.08-286.097z"  horiz-adv-x="1024" />

    
    <glyph glyph-name="liebiao" unicode="&#58885;" d="M968.688 728.097h-625.152c-31.38 0-56.839-25.459-56.839-56.839v-28.419c0-31.379 25.459-56.838 56.839-56.838h625.152c31.378 0 56.838 25.46 56.838 56.838v28.419c0 31.38-25.461 56.839-56.838 56.839zM968.688 358.719h-625.152c-31.38 0-56.839-25.459-56.839-56.838v-28.419c0-31.38 25.459-56.838 56.839-56.838h625.152c31.378 0 56.838 25.458 56.838 56.838v28.419c0 31.379-25.461 56.838-56.838 56.838zM968.688-10.733h-625.152c-31.38 0-56.839-25.421-56.839-56.801v-28.419c0-31.418 25.459-56.839 56.839-56.839h625.152c31.378 0 56.838 25.421 56.838 56.839v28.419c0 31.38-25.461 56.801-56.838 56.801zM87.798 728.097h-28.42c-31.379 0-56.801-25.459-56.801-56.839v-28.419c0-31.379 25.423-56.838 56.801-56.838h28.419c31.38 0 56.838 25.46 56.838 56.838v28.419c0.001 31.38-25.458 56.839-56.837 56.839zM87.798-10.733h-28.42c-31.379 0-56.801-25.421-56.801-56.801v-28.419c0-31.418 25.423-56.839 56.801-56.839h28.419c31.38 0 56.838 25.421 56.838 56.839v28.419c0.001 31.38-25.458 56.801-56.837 56.801zM87.798 358.719h-28.42c-31.379 0-56.801-25.459-56.801-56.838v-28.419c0-31.38 25.423-56.838 56.801-56.838h28.419c31.38 0 56.838 25.458 56.838 56.838v28.419c0.001 31.379-25.458 56.838-56.837 56.838z"  horiz-adv-x="1024" />

    
    <glyph glyph-name="Group-" unicode="&#59054;" d="M832 64a32 32 0 0 1 32 29.76L832 672a32 32 0 0 1-32 32H224a32 32 0 0 1-32-32L160 96a32 32 0 0 1 32-32z m0-64H192a96 96 0 0 0-96 96L128 672a96 96 0 0 0 96 96h576a96 96 0 0 0 96-93.76L928 96a96 96 0 0 0-96-96zM640 576a32 32 0 0 0 64 0 192 192 0 0 0-384 0 32 32 0 0 0 64 0 128 128 0 0 1 256 0z"  horiz-adv-x="1024" />

    
    <glyph glyph-name="index" unicode="&#58908;" d="M553.86203003 739.38230896a59.43740844 59.43740844 0 0 1-79.86785888 0L151.037323 432.72161865a29.79286193 29.79286193 0 0 1 39.89685059-44.25361632l5.13542175 4.87586974V73.27917480999997a59.58572388 59.58572388 0 0 1 59.58572388-59.6598816h173.39927672v179.3875122a41.95472718 41.95472718 0 0 0 41.97326661 42.01034547h81.59202576a41.95472718 41.95472718 0 0 0 41.97326659-42.01034547v-179.3875122h177.51502992a59.58572388 59.58572388 0 0 1 59.6042633 59.6598816V389.43205261c13.2371521-11.97647094 32.01759338-11.06803894 43.03001403 1.20506286a29.79286193 29.79286193 0 0 1-2.15057372 42.08450318L553.86203003 739.36376953z"  horiz-adv-x="1024" />

    
    <glyph glyph-name="gerenzhongxin-zhong" unicode="&#58880;" d="M952.832-15.871999999999957s-25.6-45.056-84.992-45.056h-716.8c-33.28 0-61.44 17.92-77.312 45.056 0 0-12.288 12.8-12.288 45.056V51.200000000000045h1.536c11.776 135.68 131.072 248.832 294.4 293.376C287.232 393.216 240.64 474.112 240.64 566.2719999999999c0 148.48 120.32 268.8 268.8 268.8S778.24 714.752 778.24 566.2719999999999c0-92.16-46.592-173.056-117.248-221.696 163.328-44.032 282.624-157.696 294.4-293.376h1.536v-22.528c0-14.848-1.536-29.696-4.096-44.544z"  horiz-adv-x="1024" />

    


  </font>
</defs>
</svg>
